<?xml version="1.0" encoding="UTF-8" standalone="no"?>
<!-- Svg Vector Icons : http://www.onlinewebfonts.com/icon -->

<svg
   version="1.1"
   x="0px"
   y="0px"
   viewBox="0 0 1202.0116 1202.0116"
   enable-background="new 0 0 1000 1000"
   xml:space="preserve"
   id="svg12"
   sodipodi:docname="43c9eb1c3e18f4382bb6059cd14e5e82.svg"
   width="1202.0116"
   height="1202.0116"
   inkscape:version="1.1.2 (b8e25be833, 2022-02-05)"
   xmlns:inkscape="http://www.inkscape.org/namespaces/inkscape"
   xmlns:sodipodi="http://sodipodi.sourceforge.net/DTD/sodipodi-0.dtd"
   xmlns="http://www.w3.org/2000/svg"
   xmlns:svg="http://www.w3.org/2000/svg"><defs
   id="defs16"><filter
     style="color-interpolation-filters:sRGB;"
     inkscape:label="Drop Shadow"
     id="filter5200"
     x="-0.057205589"
     y="-0.067345484"
     width="1.1218747"
     height="1.1434774"><feFlood
       flood-opacity="1"
       flood-color="rgb(0,0,0)"
       result="flood"
       id="feFlood5190" /><feComposite
       in="flood"
       in2="SourceGraphic"
       operator="in"
       result="composite1"
       id="feComposite5192" /><feGaussianBlur
       in="composite1"
       stdDeviation="19.1617"
       result="blur"
       id="feGaussianBlur5194" /><feOffset
       dx="6"
       dy="6"
       result="offset"
       id="feOffset5196" /><feComposite
       in="SourceGraphic"
       in2="offset"
       operator="over"
       result="composite2"
       id="feComposite5198" /></filter></defs><sodipodi:namedview
   id="namedview14"
   pagecolor="#ffffff"
   bordercolor="#666666"
   borderopacity="1.0"
   inkscape:pageshadow="2"
   inkscape:pageopacity="0.0"
   inkscape:pagecheckerboard="0"
   showgrid="false"
   inkscape:zoom="0.18066578"
   inkscape:cx="1760.1562"
   inkscape:cy="531.36791"
   inkscape:window-width="1366"
   inkscape:window-height="697"
   inkscape:window-x="-8"
   inkscape:window-y="-8"
   inkscape:window-maximized="1"
   inkscape:current-layer="g10"><inkscape:grid
     type="xygrid"
     id="grid1255"
     originx="958.97062"
     originy="-133.00598" /></sodipodi:namedview>
<metadata
   id="metadata2"> Svg Vector Icons : http://www.onlinewebfonts.com/icon </metadata>
<g
   id="g10"
   transform="translate(958.97062,-133.00598)"><circle
     style="fill:#ff0000;stroke:#808080;stroke-width:0.285411;stroke-linecap:round;stroke-linejoin:round;stroke-opacity:0;paint-order:stroke fill markers"
     id="path1257"
     cx="-286.00873"
     cy="-472.6362"
     r="600.8631"
     inkscape:export-filename="C:\Users\lex\Downloads\player1.png"
     inkscape:export-xdpi="36"
     inkscape:export-ydpi="36" /><circle
     style="fill:#ccff00;fill-opacity:1;stroke:#ccff01;stroke-width:0.285;stroke-linecap:round;stroke-linejoin:round;stroke-miterlimit:4;stroke-dasharray:none;stroke-opacity:1;paint-order:stroke fill markers"
     id="path1257-7"
     cx="-2173.4719"
     cy="19.986147"
     r="600.8631"
     inkscape:export-filename="C:\Users\lex\Downloads\player2.png"
     inkscape:export-xdpi="36"
     inkscape:export-ydpi="36" /><circle
     style="fill:#00ff66;fill-opacity:1;stroke:#ccff01;stroke-width:0.285;stroke-linecap:round;stroke-linejoin:round;stroke-miterlimit:4;stroke-dasharray:none;stroke-opacity:1;paint-order:stroke fill markers"
     id="path1257-7-8"
     cx="-2322.9192"
     cy="1486.783"
     r="600.8631"
     inkscape:export-filename="C:\Users\lex\Downloads\player3.png"
     inkscape:export-xdpi="36"
     inkscape:export-ydpi="36" /><circle
     style="fill:#0066ff;fill-opacity:1;stroke:#ccff01;stroke-width:0.285;stroke-linecap:round;stroke-linejoin:round;stroke-miterlimit:4;stroke-dasharray:none;stroke-opacity:1;paint-order:stroke fill markers"
     id="path1257-7-8-0"
     cx="-1016.6396"
     cy="1935.1246"
     r="600.8631"
     inkscape:export-filename="C:\Users\lex\Downloads\player4.png"
     inkscape:export-xdpi="36"
     inkscape:export-ydpi="36" /><circle
     style="fill:#cc00ff;fill-opacity:1;stroke:#ccff01;stroke-width:0.285;stroke-linecap:round;stroke-linejoin:round;stroke-miterlimit:4;stroke-dasharray:none;stroke-opacity:1;paint-order:stroke fill markers"
     id="path1257-7-8-0-7"
     cx="-357.96481"
     cy="734.01178"
     r="600.8631"
     inkscape:export-filename="C:\Users\lex\Downloads\player5.png"
     inkscape:export-xdpi="36"
     inkscape:export-ydpi="36" /><g
     id="g1381"
     transform="matrix(0.98031072,0,0,0.98031072,-848.12018,243.8074)"
     style="fill:#ffffff"><path
       d="m 709.5,585 c -6.2,2.7 0.4,22.3 -4,33.8 -4.5,11.6 -12.5,28 -5.3,30.3 7.1,2.2 27.6,-10.2 28,-29.4 0.5,-19.1 -12.4,-37.3 -18.7,-34.7 z"
       id="path8"
       style="fill:#ffffff" /><path
       style="fill:#ffffff;stroke-width:1.33333"
       d="m 488.77098,838.7488 c -4.5923,-22.37688 -7.4228,-28.44166 -19.4576,-41.69141 -11.6854,-12.86515 -12.9554,-18.40311 -7.292,-31.79703 1.9092,-4.5152 -4.1767,-0.0648 -8.4957,6.21255 -7.7897,11.32197 -10.2386,28.45835 -6.2231,43.54723 1.0643,3.99922 1.6577,7.54868 1.3188,7.88766 -0.339,0.33898 -5.8997,-4.73312 -12.357,-11.27133 -18.4215,-18.65229 -23.0704,-31.70355 -18.393,-51.63707 2.4891,-10.60818 2.7548,-21.21197 0.6349,-25.33825 -1.7643,-3.4342 -7.9287,-10.24568 -9.2723,-10.24568 -0.5151,0 -1.1587,6.49299 -1.4303,14.42885 -0.4622,13.50472 -0.8146,15.07774 -5.5008,24.55976 -2.7539,5.572 -7.6291,13.02715 -10.834,16.56699 l -5.8269,6.43608 0.099,-11.99584 c 0.1384,-16.77028 -2.6065,-24.33443 -12.3036,-33.90432 -4.1379,-4.08367 -9.7752,-8.92485 -12.5273,-10.75819 -10.297,-6.85933 -14.6147,-20.91941 -9.4759,-30.85678 1.1541,-2.23174 1.8788,-4.27724 1.6105,-4.54556 -0.9846,-0.98454 -13.8186,5.9035 -17.3872,9.33169 -5.3275,5.11785 -7.7036,9.17824 -9.5062,16.24457 l -1.5944,6.2499 -3.9438,-8.54524 c -3.6296,-7.8641 -3.9439,-9.7409 -3.9439,-23.54524 0,-17.09572 1.3397,-15.72627 -13.833,-14.1404 -7.0548,0.73736 -8.1181,1.19397 -7.4779,3.21102 0.4104,1.2933 1.2766,7.05648 1.9248,12.80707 4.9623,44.02381 -21.5103,85.87067 -66.0529,104.41377 -25.1732,10.47964 -56.8065,11.39898 -84.561,2.45756 -19.6517,-6.33101 -40.7917,-20.2728 -45.9086,-30.2767 -7.286099,-14.24472 0.1581,-37.09702 21.545,-66.13899 11.0075,-14.94737 40.3886,-44.27471 54.0164,-53.91747 l 10.2473,-7.2508 -7.6525,-6.92509 c -9.1254,-8.25804 -14.1713,-17.00235 -16.1509,-27.98879 -3.8753,-21.50698 8.1205,-42.51085 30.2722,-53.00454 8.2394,-3.9032 10.0427,-4.24415 22.2977,-4.2158 11.7945,0.0273 14.2017,0.45384 20.8572,3.69592 8.2118,4.0002 16.8068,12.42392 20.8903,20.47402 3.4619,6.82467 6.0586,18.91592 5.3555,24.93786 -0.3121,2.67374 -0.238,4.87097 0.1648,4.88272 0.4027,0.012 11.9047,-4.25235 25.56,-9.47578 l 24.8277,-9.49713 0.6898,-7.60765 c 0.8338,-9.19443 5.6839,-19.25674 12.9778,-26.92422 2.9418,-3.09244 5.1535,-5.81784 4.9149,-6.05644 -0.2386,-0.23861 -3.5049,1.09658 -7.2585,2.96706 -8.7307,4.35068 -21.4335,17.89561 -26.7377,28.51025 l -4.1004,8.20567 -1.7126,-5.73823 c -1.048,-3.51148 -1.7185,-13.24063 -1.7278,-25.07156 -0.013,-16.17903 0.48,-21.04823 3.0199,-29.84425 1.6693,-5.781 2.865,-10.63266 2.6571,-10.78146 -0.2079,-0.14878 -6.3746,-1.94616 -13.7038,-3.99416 -44.979,-12.56849 -105.8464,-37.5551 -143.8054,-59.03336 l -11.7978,-6.67556 10.4645,-0.95404 c 23.6242,-2.15382 40.9481,-6.95037 60.5015,-16.75132 10.3488,-5.18722 28.9,-18.30116 34.4377,-24.34408 l 3.1414,-3.42801 -6.7512,-15.76355 c -9.0018,-21.01858 -14.2824,-37.58958 -18.1694,-57.01758 -11.3428,-56.69262 -5.8845,-109.63368 16.2897,-157.9987 l 5.1411,-11.21342 2.4688,6.56641 c 3.9663,10.54963 16.4953,34.94676 23.1869,45.15072 10.6708,16.27201 30.8184,35.0302 50.046,46.59477 l 7.8279,4.70819 13.0664,-13.6856 c 7.1866,-7.52708 18.364,-17.46083 24.8388,-22.075 13.3392,-9.50604 35.971,-20.91059 51.763,-26.08429 11.139,-3.6493 40.621,-10.04238 46.311,-10.04238 3.1872,0 3.2661,0.2165 2.3079,6.33334 -2.2197,14.17038 -2.8125,34.96012 -1.399,49.0634 4.3552,43.455 21.9958,68.60326 48.1227,68.60326 33.2888,0 53.2007,-42.7548 48.0501,-103.17346 -0.8798,-10.32032 -1.8864,-19.22823 -2.2369,-19.79538 -1.1301,-1.82864 6.1432,-1.10713 22.7637,2.25815 43.377,8.78285 76.6198,26.60245 104.4133,55.9702 l 11.9762,12.65445 7.8501,-4.72153 c 18.8666,-11.34748 39.3183,-30.24021 49.6434,-45.85909 4.9071,-7.42308 21.1025,-39.19106 25.1099,-49.254 1.1666,-2.92966 1.9735,-1.64932 8.0948,12.84489 11.7172,27.74424 16.6643,47.43456 19.1897,76.3784 3.8139,43.71195 -4.0102,89.06261 -23.0826,133.79425 l -6.7212,15.76355 3.1414,3.42801 c 5.5377,6.04292 24.089,19.15686 34.4377,24.34408 19.4291,9.73863 37.8668,14.86018 60.5015,16.80584 l 10.4645,0.89952 -11.7978,6.67556 c -38.8243,21.96786 -102.8942,48.0197 -148.4645,60.36798 -4.7667,1.29164 -9.0808,2.70921 -9.587,3.15017 -0.5062,0.44096 0.3422,5.00175 1.8853,10.13508 2.2835,7.59587 2.8247,13.05649 2.9074,29.33333 0.066,13.08603 -0.5126,22.05119 -1.6753,25.93344 l -1.7769,5.93344 -4.7227,-8.9463 c -5.9899,-11.34683 -17.7631,-23.92506 -26.3418,-28.14294 -3.6543,-1.79674 -6.7966,-3.11449 -6.9828,-2.9283 -0.1862,0.18617 2.2141,3.07958 5.334,6.42981 7.5005,8.05428 11.7371,16.84673 12.5929,26.13468 l 0.699,7.58617 25.5006,9.68051 c 14.0254,5.32428 25.8301,9.67428 26.2329,9.66667 0.4027,-0.008 0.4769,-2.20146 0.1647,-4.8752 -0.703,-6.02194 1.8937,-18.11319 5.3556,-24.93786 4.0835,-8.0501 12.6785,-16.47382 20.8903,-20.47402 6.6555,-3.24208 9.0626,-3.66863 20.8571,-3.69592 12.2551,-0.0284 14.0583,0.3126 22.2978,4.2158 22.1516,10.49369 34.1474,31.49756 30.2722,53.00454 -1.9797,10.98644 -7.0256,19.73075 -16.151,27.98879 l -7.6525,6.92509 10.2474,7.2508 c 13.6277,9.64276 43.0089,38.9701 54.0163,53.91747 21.4129,29.07717 28.8328,51.89257 21.5232,66.18131 -5.1613,10.08924 -26.0981,23.8884 -45.8867,30.24325 -19.4889,6.2586 -46.1875,7.83469 -64.8405,3.82772 -45.5119,-9.77672 -80.8863,-46.61351 -85.7079,-89.25095 -1.1359,-10.04492 -0.1684,-27.8754 1.8593,-34.26404 0.6402,-2.01705 -0.4232,-2.47366 -7.4779,-3.21102 -15.1727,-1.58587 -13.833,-2.95532 -13.833,14.1404 0,13.80434 -0.3144,15.68114 -3.9439,23.54524 l -3.9438,8.54524 -1.5944,-6.2499 c -1.8026,-7.06633 -4.1787,-11.12672 -9.5061,-16.24457 -3.5686,-3.42819 -16.4027,-10.31623 -17.3872,-9.33169 -0.2684,0.26832 0.4563,2.31382 1.6104,4.54556 5.2008,10.05721 0.9852,23.57221 -9.6247,30.85678 -2.6703,1.83334 -8.2406,6.67452 -12.3785,10.75819 -9.7812,9.65291 -12.5376,17.23337 -12.3299,33.90848 l 0.1495,12 -5.8391,-6.44024 c -3.2114,-3.54213 -8.0921,-10.99915 -10.8459,-16.57115 -4.6906,-9.4906 -5.0384,-11.0467 -5.503,-24.621 -0.3279,-9.58098 -0.9834,-14.32761 -1.9348,-14.01046 -0.7914,0.2638 -3.2109,2.66896 -5.3767,5.34481 -3.7194,4.59553 -3.9919,5.77541 -4.9153,21.28935 -1.0794,18.13209 -3.0558,24.455 -12.2529,39.19929 -4.7188,7.56488 -15.6181,19.14285 -18.0206,19.14264 -0.5664,-5e-5 -1.1988,-4.17841 -1.4054,-9.28527 -0.2065,-5.10684 -1.5241,-13.77588 -2.9278,-19.26452 -4.085,-15.97228 -16.6374,-41.01621 -13.2525,-26.44072 0.6374,2.74483 1.1733,9.84463 1.1908,15.77732 0.083,28.13395 -15.3382,57.42592 -35.6519,67.71966 -8.3382,4.22532 -8.1178,4.21308 -8.8812,0.49362 z m -278.1018,-49.87552 c 32.5587,-7.99245 59.6465,-33.16101 67.2955,-62.52754 2.6419,-10.14272 2.617,-30.60618 -0.05,-41.07115 -4.3737,-17.16287 -19.6751,-42.77649 -36.6493,-61.34895 l -6.8365,-7.48021 4.095,-3.44565 c 11.8463,-9.96802 6.4137,-32.01664 -9.8491,-39.9733 -6.6143,-3.23602 -8.4514,-3.55941 -16.1413,-2.84132 -32.1627,3.0034 -44.7771,39.25038 -19.7998,56.89391 3.6312,2.56497 11.4195,9.47581 17.3074,15.35743 17.4023,17.38369 27.2947,39.5109 27.2947,61.05264 0,36.38417 -30.433,63.94344 -70.6667,63.9938 -16.1605,0.0203 -30.0185,-4.45156 -44.5302,-14.3693 -4.0737,-2.78405 -5.4382,-3.17129 -6.313,-1.79161 -2.9361,4.6306 0.5051,13.12203 8.2557,20.37184 18.1285,16.95708 56.4889,24.56797 86.5875,17.17941 z m -22,-5.56306 c 26.4302,-6.99626 46.109,-20.04312 60.3824,-40.03294 18.7703,-26.28773 17.8624,-57.0866 -2.8596,-97.00266 -3.3505,-6.45399 -5.9444,-11.88199 -5.7642,-12.0622 0.7176,-0.71755 16.5105,22.69288 20.5913,30.52318 15.4731,29.69016 13.6473,60.31023 -5.0846,85.27059 -14.6025,19.45787 -41.2244,33.51487 -66.5344,35.13171 l -10.0642,0.64292 z m 0.4386,-169.09986 c -3.3921,-7.66829 -2.5949,-16.07933 2.2123,-23.34358 6.4337,-9.72187 21.7518,-15.24858 32.2492,-11.63536 l 5.0999,1.75542 -7.6974,0.87476 c -10.2057,1.15983 -19.0109,6.64918 -24.2447,15.11458 -3.3483,5.41584 -4.0163,7.89281 -4.0352,14.9631 -0.012,4.66008 -0.2064,8.47363 -0.431,8.47454 -0.2246,9e-4 -1.6434,-2.79064 -3.1531,-6.20346 z m 651.8404,174.17931 c 15.0239,-3.52076 27.0037,-9.23949 34.9751,-16.6958 7.7507,-7.24981 11.1918,-15.74124 8.2557,-20.37184 -0.8748,-1.37968 -2.2392,-0.99244 -6.3129,1.79161 -14.5117,9.91774 -28.3697,14.38952 -44.5302,14.3693 -40.0272,-0.0501 -70.6667,-27.54636 -70.6667,-63.41708 0,-28.78659 16.1525,-56.62492 44.6679,-76.98372 24.9133,-17.78714 12.2368,-53.89922 -19.9764,-56.90732 -7.5627,-0.70622 -9.4415,-0.37199 -16.0304,2.85166 -16.4227,8.03488 -21.7697,29.94279 -9.772,40.03819 l 4.1742,3.51239 -5.4206,5.58588 c -16.4593,16.96108 -33.8628,45.80342 -38.3679,63.58586 -2.794,11.02854 -2.7935,30.22496 10e-4,40.54374 8.942,33.01838 39.8836,58.89082 77.3909,64.71206 10.6141,1.64734 28.118,0.54739 41.6123,-2.61493 z m -41.7919,-4.63176 c -24.8557,-5.40561 -46.3979,-19.76837 -59.0801,-39.39023 -14.4592,-22.37117 -15.1986,-51.42046 -1.9841,-77.95221 4.0643,-8.1602 20.6607,-33.02753 21.4894,-32.1988 0.1678,0.16779 -2.6455,6.02756 -6.2519,13.02172 -3.6063,6.99416 -8.4954,18.37025 -10.8647,25.2802 -3.8878,11.33884 -4.315,14.12325 -4.383,28.56355 -0.063,13.40858 0.4045,17.27178 2.887,23.85229 10.4263,27.63736 37.4741,50.23161 69.5935,58.13453 l 10.1068,2.48676 -6.6666,-0.009 c -3.6667,-0.005 -10.3475,-0.80997 -14.8463,-1.78836 z m 8.1569,-171.81863 c -0.019,-7.07029 -0.6869,-9.54726 -4.0352,-14.9631 -5.2338,-8.4654 -14.039,-13.95475 -24.2447,-15.11458 l -7.6974,-0.87476 5.1,-1.75542 c 10.4974,-3.61322 25.8154,1.91349 32.2491,11.63536 4.8072,7.26425 5.6044,15.67529 2.2123,23.34358 -1.5096,3.41282 -2.9285,6.20436 -3.1531,6.20346 -0.2246,-9.1e-4 -0.4185,-3.81446 -0.431,-8.47454 z m -622.4809,135.71275 c 19.6846,-5.41484 36.3807,-25.6404 34.9425,-42.32935 l -0.4389,-5.0928 -8.1561,5.28247 c -4.4858,2.90536 -12.5313,9.39712 -17.8789,14.42613 -9.574,9.0037 -25.2983,27.68254 -25.2983,30.05174 0,1.37324 6.7433,0.43637 16.8297,-2.33819 z m 647.1703,2.27777 c 0,-2.31805 -15.8398,-21.09618 -25.2984,-29.99132 -5.3476,-5.02901 -13.3931,-11.52077 -17.8789,-14.42613 l -8.1561,-5.28247 -0.4389,5.0928 c -1.616,18.7521 16.6791,38.64008 40.2637,43.76944 10.073,2.19076 11.5086,2.29526 11.5086,0.83768 z m -681.9268,-6.7292 c -0.5,-0.80892 -2.8209,-2.43376 -5.1578,-3.61076 -2.3368,-1.177 -7.0616,-4.47716 -10.4996,-7.33366 l -6.2509,-5.19368 -2.0825,2.97316 c -3.1481,4.49457 -2.6716,5.46385 4.9176,10.00456 11.1537,6.67337 15.9918,8.36181 18.1577,6.33682 1.0035,-0.93812 1.4154,-2.36752 0.9155,-3.17644 z m 720.2577,-3.8774 c 6.2793,-3.96252 6.641,-4.92677 3.5192,-9.38365 l -2.1498,-3.06928 -3.5168,3.29629 c -1.9343,1.81296 -6.9669,5.47907 -11.1836,8.14691 -7.9946,5.05809 -8.6376,5.93101 -6.1798,8.38883 1.7134,1.71336 10.1713,-1.48548 19.5108,-7.3791 z m -706.3042,-11.60662 c 0.9276,-1.11772 1.4511,-2.19199 1.1633,-2.38727 -6.2499,-4.24009 -12.3109,-9.05136 -16.7981,-13.33441 l -5.6081,-5.35295 -2.6809,3.22009 c -1.4745,1.77106 -2.7008,3.5468 -2.7252,3.94611 -0.056,0.91985 11.1359,9.41285 17.2889,13.11945 5.5624,3.35084 7.1247,3.48252 9.3601,0.78898 z m 681.3066,-0.78898 c 6.153,-3.7066 17.3451,-12.1996 17.2889,-13.11945 -0.024,-0.39931 -1.2507,-2.17505 -2.7252,-3.94611 l -2.6809,-3.22009 -5.6081,5.35295 c -4.4872,4.28305 -10.5482,9.09432 -16.7981,13.33441 -0.9319,0.63229 2.8029,4.41965 4.3533,4.41451 0.8269,-0.003 3.6034,-1.27004 6.1701,-2.81622 z m -666.5803,-16.61624 c 1.4914,-1.797 1.1583,-2.56429 -2.2823,-5.25696 -2.2157,-1.73406 -6.6172,-6.50812 -9.781,-10.60898 l -5.7523,-7.45615 -3.1354,2.94552 c -1.7245,1.62003 -3.1354,3.61916 -3.1354,4.44251 0,2.72988 17.6445,17.99198 20.8368,18.02338 0.8269,0.008 2.2892,-0.93206 3.2496,-2.08932 z m 651.7878,-1.43177 c 7.0632,-5.21116 14.7925,-12.78884 14.7925,-14.50229 0,-0.82335 -1.4121,-2.82354 -3.1379,-4.44487 l -3.1379,-2.94787 -3.7568,5.04879 c -2.0663,2.77683 -6.432,7.59363 -9.7016,10.70397 -4.9773,4.73487 -5.673,5.98254 -4.2753,7.66667 2.3064,2.77908 3.6954,2.54935 9.217,-1.5244 z m -634.5377,-13.13453 c 1.3832,-1.66674 0.761,-2.98223 -3.6998,-7.82162 -2.9495,-3.19984 -6.9936,-8.28222 -8.9868,-11.29421 -3.0091,-4.54711 -4.0379,-5.25488 -6.0627,-4.17121 -4.1808,2.23748 -4.2687,3.91189 -0.4734,9.01508 4.1123,5.5294 15.056,16.2757 16.5747,16.2757 0.5418,0 1.7333,-0.90168 2.648,-2.00374 z m 615.3218,-1.4136 c 5.8921,-4.49408 15.8071,-17.41766 14.7166,-19.1821 -0.4712,-0.76241 -1.9398,-1.96586 -3.2636,-2.67433 -2.008,-1.07468 -3.202,-0.13361 -7.2056,5.67947 -2.6393,3.83217 -6.9029,9.007 -9.4747,11.49962 -4.2899,4.158 -4.4869,4.67558 -2.3867,6.27096 2.9544,2.24431 2.4415,2.35166 7.614,-1.59362 z m -595.3249,-11.4451 c 0,-3.416 -13.9195,-26.47089 -15.982,-26.47089 -0.5807,0 -2.3969,1.08581 -4.0358,2.41292 -2.8594,2.31541 -2.8928,2.58125 -0.8258,6.57829 3.4233,6.62002 16.7267,20.30327 18.9209,19.46127 1.0575,-0.40579 1.9227,-1.29749 1.9227,-1.98159 z m 586.7459,-14.36614 c 2.1564,-3.2424 3.9207,-6.37858 3.9207,-6.96927 0,-0.59071 -1.5475,-2.08801 -3.439,-3.32737 -3.3567,-2.19939 -3.5156,-2.1602 -6.6346,1.63593 -1.7575,2.13911 -5.4599,8.25293 -8.2276,13.58627 -4.2756,8.23912 -4.7315,9.88549 -3.0327,10.95101 2.3841,1.49527 11.2142,-6.55564 17.4132,-15.87657 z m -482.3301,-6.28172 c 9.0254,-0.77203 9.1169,-0.82006 14.54,-7.63331 5.4389,-6.833 11.8464,-19.41332 13.5908,-26.68401 0.8975,-3.74083 0.7581,-3.68651 -6.1475,2.39553 -8.7448,7.70196 -23.2291,14.99395 -33.4831,16.85687 -4.2629,0.77445 -8.3226,1.21748 -9.0216,0.98448 -0.699,-0.233 1.2257,-3.72039 4.277,-7.74978 7.4217,-9.80054 11.8587,-19.75092 12.7777,-28.65552 0.4165,-4.0355 0.385,-7.33729 -0.07,-7.33729 -1.5799,0 -49.4843,18.7384 -50.4993,19.75344 -0.5615,0.56151 2.1994,5.64753 6.1354,11.30229 3.936,5.65476 9.3929,14.53743 12.1264,19.73928 l 4.97,9.4579 10.8608,-0.82648 c 5.9735,-0.45458 14.948,-1.17611 19.9434,-1.6034 z m 157.9175,-2.1994 c 4.0651,-3.73332 3.7878,-5.68292 -1.5207,-10.6916 -2.4864,-2.34595 -5.2307,-5.65878 -6.0985,-7.36184 -1.573,-3.08698 -1.5582,-3.09332 4.854,-2.07068 8.3084,1.32508 40.5459,1.32662 48.8481,0.003 l 6.4163,-1.02345 -2.1107,4.08157 c -1.1609,2.24487 -3.5748,5.04091 -5.3643,6.21342 -4.7591,3.11833 -5.492,6.86869 -2.0567,10.52538 8.703,9.26391 22.3744,2.62176 30.117,-14.6321 5.714,-12.73312 5.9307,-12.17348 -5.0564,-13.05799 -11.8706,-0.95564 -27.9146,-5.02772 -38.4662,-9.76301 l -7.8952,-3.5435 -7.8953,3.54318 c -10.3368,4.63888 -26.3734,8.69285 -38.4651,9.72374 -10.9833,0.9364 -10.7665,0.37512 -5.0575,13.09726 7.6713,17.09485 20.4358,23.51202 29.7512,14.95696 z m 237.0915,-4.95507 c 2.6969,-5.13231 8.1239,-13.95807 12.0598,-19.61283 3.936,-5.65476 6.697,-10.74078 6.1355,-11.30229 -1.2795,-1.27945 -49.1314,-19.75344 -51.166,-19.75344 -2.68,0 -0.2131,14.06077 4.022,22.92453 2.2098,4.62484 6.228,10.9875 8.9293,14.13923 2.7013,3.15172 4.5236,6.11833 4.0495,6.59247 -1.4516,1.4515 -16.8525,-2.32386 -25.3871,-6.22332 -4.4373,-2.02742 -11.2002,-6.17922 -15.0286,-9.22623 -3.8284,-3.047 -7.276,-5.54001 -7.6612,-5.54001 -1.1321,0 4.0725,12.83093 7.7042,18.9932 1.8389,3.1204 5.3478,7.94718 7.7973,10.72617 l 4.4538,5.05269 14.6667,1.09271 c 26.8638,2.00143 23.8128,2.81671 29.4248,-7.86288 z m -271.2689,-95.06432 c 10.0957,-7.15397 23.8529,-15.60424 25.4039,-15.60424 0.5775,0 -2.2483,5.43937 -6.2796,12.08748 -4.0312,6.64812 -7.0699,12.49812 -6.7525,13 0.3173,0.50189 10.2283,5.69753 22.0246,11.54589 l 21.4477,10.63336 21.4477,-10.63336 c 11.7962,-5.84836 21.7073,-11.044 22.0246,-11.54589 0.3173,-0.50188 -2.7214,-6.35188 -6.7526,-13 -4.0313,-6.64811 -6.857,-12.08748 -6.2795,-12.08748 1.551,0 15.3081,8.45027 25.4038,15.60424 4.8525,3.43852 14.6887,12.09173 21.8583,19.22939 l 13.0357,12.97754 13.9643,-18.52516 c 7.6804,-10.18884 13.9643,-18.75805 13.9643,-19.04269 0,-0.28464 -4.8705,0.32359 -10.8235,1.35164 -5.9529,1.02804 -11.0163,1.67632 -11.252,1.44064 -0.2357,-0.23569 4.3349,-4.25648 10.1568,-8.93509 5.822,-4.67862 10.5854,-9.0077 10.5854,-9.6202 0,-0.61251 -1.5,-6.88683 -3.3333,-13.94295 -5.7536,-22.14419 -4.0148,-40.7148 5.5897,-59.69944 2.1009,-4.15268 2.8242,-6.95736 2.0053,-7.77621 -2.2441,-2.24412 -22.5958,-7.54831 -40.0441,-10.43654 l -16.8843,-2.79488 -19.45,8.67748 c -10.6976,4.77262 -27.8742,11.51323 -38.1703,14.97916 l -18.7203,6.3017 -0.7563,7.32852 c -0.9498,9.20221 -7.1774,22.02174 -13.8287,28.46602 -12.5011,12.11214 -32.1226,19.48482 -47.2003,17.73531 l -7.4593,-0.86551 -5.6948,6.44018 -5.6948,6.44018 0.9231,-9.33812 c 0.8884,-8.98746 0.7874,-9.46309 -2.6891,-12.66666 -4.6854,-4.31759 -9.6718,-14.98371 -10.7502,-22.99522 -0.6724,-4.99536 -1.3796,-6.33333 -3.3474,-6.33333 -2.2455,0 -2.4976,1.16616 -2.5216,11.66667 -0.018,7.99793 -1.0582,15.64986 -3.3066,24.33333 -1.804,6.96667 -3.2919,13.32531 -3.3066,14.13031 -0.015,0.805 4.7366,5.29158 10.5586,9.9702 5.822,4.67861 10.3925,8.6994 10.1568,8.93509 -0.2357,0.23568 -5.2991,-0.4126 -11.252,-1.44064 -5.9529,-1.02805 -10.8235,-1.63628 -10.8235,-1.35164 0,0.28464 6.2839,8.85385 13.9643,19.04269 l 13.9644,18.52516 13.0356,-12.97754 c 7.1696,-7.13766 17.0059,-15.79087 21.8583,-19.22939 z m 75.1774,-49.75797 c -5.1333,-12.9179 -9.4825,-23.86791 -9.6648,-24.33335 -0.1822,-0.46544 4.3178,-0.86716 10,-0.89271 12.1857,-0.0548 19.1192,-3.06442 32.2666,-14.00578 10.796,-8.98452 17.4616,-11.88311 27.3982,-11.91432 6.1599,-0.0193 9.8401,0.87045 16,3.86849 6.4316,3.13028 7.3202,3.91365 4.5323,3.99584 -5.1806,0.15272 -11.9845,2.73027 -16.9568,6.42375 -4.0457,3.00521 -12.2446,12.97112 -12.2404,14.87853 9e-4,0.43997 4.3509,0.81753 9.6666,0.83903 5.3157,0.0215 11.0226,0.79668 12.6819,1.72264 2.5984,1.44998 2.801,2.08716 1.4602,4.59237 -3.0524,5.7036 -14.8773,16.93556 -20.9597,19.90881 -9.0769,4.43706 -24.7692,4.25532 -34.8508,-0.40358 l -7.3333,-3.3889 -1.3333,11.09814 -1.3334,11.09813 z m 49.9469,1.30636 c 3.7383,-2.20828 10.7198,-11.70875 10.7198,-14.58762 0,-2.73854 -11.6701,2.31702 -13.2247,5.72903 -1.8842,4.13537 -8.1385,4.55887 -12.3082,0.83343 -1.5535,-1.38804 -3.6136,-1.6999 -7.0147,-1.06184 -5.8796,1.10301 -6.7594,2.27498 -3.7514,4.99718 6.9891,6.32499 18.6414,8.18806 25.5792,4.08982 z m -170.014,-43.04636 c 5.7343,-9.08367 15.723,-14.77294 25.937,-14.77294 2.6429,0 9.0014,1.2 14.1301,2.66667 5.1287,1.46667 10.5079,2.66667 11.9538,2.66667 1.446,0 5.8427,-3.15 9.7705,-7 l 7.1414,-7 -0.3786,6 c -0.367,5.81518 -0.2668,5.98808 3.2529,5.6132 1.9974,-0.21275 5.6182,0.55589 8.0463,1.70809 4.2976,2.03932 4.9273,1.91781 23.7411,-4.58108 34.6307,-11.96251 34.6409,-11.34168 -0.1941,-11.8114 -33.826,-0.45611 -62.4482,1.29189 -85.6338,5.2298 -16.5321,2.80784 -36.4738,8.08233 -38.6013,10.20987 -0.7835,0.78344 0.1305,4.07778 2.4349,8.77621 3.6262,7.39379 3.7863,7.52197 9.3946,7.52197 5.1871,0 6.0053,-0.47496 9.0052,-5.22706 z m -197.8979,-14.81432 c 46.5305,-5.6616 72.5835,-25.13175 95.8322,-71.61827 2.2902,-4.57947 7.9728,-17.77947 12.6278,-29.33333 10.5998,-26.30867 18.3567,-41.78883 28.6538,-57.18319 14.7657,-22.07487 38.0719,-42.27012 60.2816,-52.23491 15.0532,-6.75394 14.5696,-6.78093 14.5696,0.81324 0,8.6011 3.3176,27.84807 6.8249,39.5946 8.2243,27.54496 26.0625,51.00782 46.2677,60.85676 l 5.7592,2.80732 -3.3544,3.50292 c -4.6504,4.85623 -8.907,15.04159 -9.7665,23.36964 -0.9093,8.80991 2.1137,19.67796 7.5675,27.20679 2.2192,3.06353 4.0349,5.78909 4.0349,6.0568 0,0.26771 -4.2522,0.88195 -9.4493,1.36497 -32.3126,3.00314 -69.639,16.66172 -90.3229,33.05124 -9.282,7.3549 -10.0246,9.43788 -1.884,5.28487 9.3928,-4.79187 35.9584,-13.32269 52.0027,-16.69925 48.0584,-10.11403 109.9154,-10.11403 157.9737,0 16.0443,3.37656 42.6099,11.90738 52.0027,16.69925 2.8979,1.47839 5.5376,2.41919 5.8662,2.09068 1.1467,-1.14669 -16.47,-14.15749 -26.29,-19.41644 -18.2744,-9.78665 -49.5662,-18.94551 -71.7831,-21.01035 -5.1971,-0.48302 -9.4493,-1.09726 -9.4493,-1.36497 0,-0.26771 1.8059,-2.97973 4.0132,-6.02672 4.5286,-6.25161 7.9868,-16.54387 7.9868,-23.77027 0,-7.63302 -3.6576,-18.01389 -8.6529,-24.55802 l -4.5831,-6.00416 8.2639,-4.38558 c 9.7204,-5.15856 22.332,-17.20757 29.5486,-28.23044 10.6567,-16.2774 18.5047,-41.49872 20.2822,-65.18102 1.0032,-13.36618 -0.168,-12.87714 14.7788,-6.17096 17.245,7.73728 35.3197,21.3293 48.188,36.23688 15.6283,18.10496 26.6546,37.82462 40.8129,72.9906 29.6301,73.59474 56.1169,96.87268 116.0283,101.9716 l 9.3333,0.79433 -16,-7.88968 c -19.8765,-9.80123 -32.5694,-18.74961 -46.514,-32.79197 -19.271,-19.40627 -33.6857,-42.74568 -46.9431,-76.00742 -27.3483,-68.61453 -66.6165,-107.72314 -123.8762,-123.37282 -5.8667,-1.60342 -11.643,-3.19171 -12.8363,-3.52954 -1.9301,-0.54641 -2.2442,2.07619 -2.8451,23.75699 -0.5371,19.37705 -1.2865,26.69364 -3.6569,35.70455 -7.6511,29.085 -21.6835,48.26093 -42.1961,57.6632 -9.3188,4.27138 -31.5596,4.29637 -40.8275,0.0459 -15.2215,-6.98094 -26.7075,-19.11829 -35.0546,-37.0424 -8.0724,-17.33438 -11.3978,-35.49633 -11.4225,-62.38606 -0.015,-16.58671 -0.2376,-18.33752 -2.2557,-17.76406 -1.2313,0.34988 -6.7387,1.87159 -12.2387,3.38155 -58.9794,16.1922 -97.3891,54.63072 -125.3414,125.43524 -12.235,30.99195 -27.2158,55.05331 -46.1446,74.11491 -14.0367,14.13514 -26.7569,23.07421 -46.514,32.68741 -17.0022,8.27277 -16.9626,8.63892 0.7017,6.48963 z m 51.965,-76.0066 c 0,-1.03706 -10.689,-4.37412 -11.4793,-3.58382 -0.3042,0.30418 0.704,3.39484 2.2404,6.86816 l 2.7935,6.31512 3.2227,-4.3681 c 1.7725,-2.40247 3.2227,-4.75658 3.2227,-5.23136 z m 504.9207,-3.47578 c -0.328,-0.32797 -3.3589,0.0993 -6.7354,0.94952 l -6.1391,1.54584 3.6436,5.0934 3.6435,5.0934 3.0919,-6.04293 c 1.7005,-3.32361 2.8234,-6.31127 2.4955,-6.63923 z m -493.5854,-15.14678 c 3.3158,-6.60212 7.8657,-16.65212 10.111,-22.33334 8.2359,-20.83948 15.4232,-35.53198 27.0013,-55.19748 l 3.6511,-6.20136 -13.3822,-8.76812 c -21.4692,-14.06681 -41.8012,-34.94545 -55.2109,-56.69533 -3.2592,-5.28625 -6.239,-9.10457 -6.6218,-8.48516 -0.3828,0.61943 -1.5862,5.00188 -2.6741,9.73879 -4.0815,17.77046 -6.4711,38.06284 -6.6705,56.64664 l -0.2059,19.1842 7.3334,7.49652 c 4.0333,4.12309 12.0202,11.04897 17.7487,15.39085 5.7285,4.34188 10.0558,7.89433 9.6164,7.89433 -1.3834,0 -24.2333,-9.02428 -28.7051,-11.33674 l -4.2729,-2.20962 0.9694,7.10651 c 1.068,7.82939 7.6863,35.77481 9.7614,41.21672 1.1706,3.06995 21.5862,18.55647 24.4626,18.55647 0.5826,0 3.7723,-5.40175 7.0881,-12.00388 z m 489.4714,4.61568 c 6.107,-4.06351 11.4285,-7.91368 11.8254,-8.55592 1.3278,-2.14838 9.7498,-36.63144 10.7047,-43.82907 l 0.9427,-7.10651 -4.2729,2.20962 c -4.4718,2.31246 -27.3216,11.33674 -28.7051,11.33674 -0.4394,0 3.888,-3.55245 9.6164,-7.89433 5.7285,-4.34188 13.7154,-11.26535 17.7488,-15.38547 l 7.3333,-7.49114 -0.1636,-18.2812 c -0.1993,-22.26204 -4.4446,-52.88186 -9.2648,-66.82402 -0.3889,-1.12461 -3.0564,2.02902 -6.6592,7.8726 -8.4382,13.68638 -17.1502,24.29087 -30.428,37.03811 -9.7648,9.37465 -31.6206,25.45528 -37.0626,27.26928 -1.1382,0.37941 0.074,3.50909 3.793,9.79355 7.9159,13.37625 18.0168,34.02768 23.665,48.38333 5.4336,13.81045 17.6695,38.85263 18.9838,38.85263 0.4616,0 5.836,-3.3247 11.9431,-7.3882 z"
       id="path4556"
       sodipodi:nodetypes="ssssssssssssscssssssscsssssssssscssssssscscssssscscsssscssscssscssscssssssssssscsssssscssscsssssscssssscscssssssscsssssssssscssssssscsssssssssssssssssscssssssssssssssssssscsssscsscsssssssssssscssssscsssssssscsccssscssssssscssssssscsssssscsssssscssssssscssssscscsscsssscssssssscssssssssssssssssssssssssssssssssssssssssssscssscsssccsssssccsssccsssssssssssscssssssscsssssscsssssssssscsscssscccsssssssssssscsssssssssssssssscccssssssssssssscsssssssssssssssssscssssssssssssssssscssssssscssssssssssssssssssssscsssscccssssscssssscsssscssssssscsssscsssssssss" /></g><path
     id="path5680"
     style="fill:#ffffff;fill-opacity:1;stroke:none;stroke-width:0.383725;stroke-linecap:round;stroke-linejoin:round;stroke-miterlimit:4;stroke-dasharray:none;stroke-opacity:1;paint-order:stroke fill markers"
     d="m -357.96481,163.89846 a 570.11346,570.11346 0 0 0 -570.1133,570.11328 570.11346,570.11346 0 0 0 570.1133,570.11336 570.11346,570.11346 0 0 0 570.11328,-570.11336 570.11346,570.11346 0 0 0 -570.11328,-570.11328 z m 0,41.51367 a 528.60034,528.60034 0 0 1 528.59961,528.59961 528.60034,528.60034 0 0 1 -528.59961,528.59956 528.60034,528.60034 0 0 1 -528.6016,-528.59956 528.60034,528.60034 0 0 1 528.6016,-528.59961 z" /></g>
</svg>
